<mxfile host="app.diagrams.net" modified="2024-03-31T16:59:23.423Z" agent="Mozilla/5.0 (Macintosh; Intel Mac OS X 10_15_7) AppleWebKit/605.1.15 (KHTML, like Gecko) Version/17.3.1 Safari/605.1.15" etag="NbNREvs3Y7ktzIepqXIl" version="24.2.1" type="github">
  <diagram id="C5RBs43oDa-KdzZeNtuy" name="Page-1">
    <mxGraphModel dx="1468" dy="995" grid="1" gridSize="10" guides="1" tooltips="1" connect="1" arrows="1" fold="1" page="1" pageScale="1" pageWidth="827" pageHeight="1169" math="0" shadow="0">
      <root>
        <mxCell id="WIyWlLk6GJQsqaUBKTNV-0" />
        <mxCell id="WIyWlLk6GJQsqaUBKTNV-1" parent="WIyWlLk6GJQsqaUBKTNV-0" />
        <mxCell id="fyniwcf8nX9ECilfkQTT-41" value="Control" style="swimlane;fontStyle=1;align=center;verticalAlign=top;childLayout=stackLayout;horizontal=1;startSize=26;horizontalStack=0;resizeParent=1;resizeParentMax=0;resizeLast=0;collapsible=1;marginBottom=0;whiteSpace=wrap;html=1;rounded=1;glass=0;swimlaneLine=1;shadow=0;" parent="WIyWlLk6GJQsqaUBKTNV-1" vertex="1">
          <mxGeometry x="430" y="590" width="840" height="220" as="geometry" />
        </mxCell>
        <mxCell id="fyniwcf8nX9ECilfkQTT-42" value="- user&lt;div&gt;- user_analyzer&lt;/div&gt;&lt;div&gt;- control_analyzer&lt;/div&gt;" style="text;strokeColor=none;fillColor=none;align=left;verticalAlign=top;spacingLeft=4;spacingRight=4;overflow=hidden;rotatable=0;points=[[0,0.5],[1,0.5]];portConstraint=eastwest;whiteSpace=wrap;html=1;rounded=0;" parent="fyniwcf8nX9ECilfkQTT-41" vertex="1">
          <mxGeometry y="26" width="840" height="54" as="geometry" />
        </mxCell>
        <mxCell id="fyniwcf8nX9ECilfkQTT-43" value="" style="line;strokeWidth=1;fillColor=none;align=left;verticalAlign=middle;spacingTop=-1;spacingLeft=3;spacingRight=3;rotatable=0;labelPosition=right;points=[];portConstraint=eastwest;strokeColor=inherit;" parent="fyniwcf8nX9ECilfkQTT-41" vertex="1">
          <mxGeometry y="80" width="840" height="8" as="geometry" />
        </mxCell>
        <mxCell id="fyniwcf8nX9ECilfkQTT-44" value="&lt;div&gt;+ treatment_request&lt;br&gt;+ AnalyzeRequest&lt;br&gt;+ Registration&lt;/div&gt;&lt;div&gt;+ Login&lt;/div&gt;&lt;div&gt;+ Openaccount&lt;br&gt;+ Closeaccount&lt;/div&gt;&lt;div&gt;+ Getbalance&lt;/div&gt;&lt;div&gt;+ Sendmoney&lt;/div&gt;" style="text;strokeColor=none;fillColor=none;align=left;verticalAlign=top;spacingLeft=4;spacingRight=4;overflow=hidden;rotatable=0;points=[[0,0.5],[1,0.5]];portConstraint=eastwest;whiteSpace=wrap;html=1;" parent="fyniwcf8nX9ECilfkQTT-41" vertex="1">
          <mxGeometry y="88" width="840" height="132" as="geometry" />
        </mxCell>
        <mxCell id="fyniwcf8nX9ECilfkQTT-45" value="User" style="swimlane;fontStyle=1;align=center;verticalAlign=top;childLayout=stackLayout;horizontal=1;startSize=26;horizontalStack=0;resizeParent=1;resizeParentMax=0;resizeLast=0;collapsible=1;marginBottom=0;whiteSpace=wrap;html=1;rounded=1;" parent="WIyWlLk6GJQsqaUBKTNV-1" vertex="1">
          <mxGeometry x="430" y="870" width="280" height="260" as="geometry" />
        </mxCell>
        <mxCell id="fyniwcf8nX9ECilfkQTT-46" value="- conn&lt;div&gt;- cursor&lt;/div&gt;&lt;div&gt;- analyzer&lt;/div&gt;" style="text;strokeColor=none;fillColor=none;align=left;verticalAlign=top;spacingLeft=4;spacingRight=4;overflow=hidden;rotatable=0;points=[[0,0.5],[1,0.5]];portConstraint=eastwest;whiteSpace=wrap;html=1;" parent="fyniwcf8nX9ECilfkQTT-45" vertex="1">
          <mxGeometry y="26" width="280" height="54" as="geometry" />
        </mxCell>
        <mxCell id="fyniwcf8nX9ECilfkQTT-47" value="" style="line;strokeWidth=1;fillColor=none;align=left;verticalAlign=middle;spacingTop=-1;spacingLeft=3;spacingRight=3;rotatable=0;labelPosition=right;points=[];portConstraint=eastwest;strokeColor=inherit;" parent="fyniwcf8nX9ECilfkQTT-45" vertex="1">
          <mxGeometry y="80" width="280" height="8" as="geometry" />
        </mxCell>
        <mxCell id="fyniwcf8nX9ECilfkQTT-48" value="&lt;div&gt;+ create_table&lt;/div&gt;&lt;div&gt;+ treatment_request&lt;br&gt;+ AnalyzeRequest&lt;br&gt;+ AddUser&lt;/div&gt;&lt;div&gt;+ DelUser&lt;/div&gt;&lt;div&gt;+ VerifyUser&lt;/div&gt;&lt;div&gt;+ IsVerified&lt;/div&gt;&lt;div&gt;+ GetID&lt;/div&gt;&lt;div&gt;+ NumberGetID&lt;/div&gt;&lt;div&gt;+ GetFSP&lt;/div&gt;&lt;div&gt;+ GetPassword&lt;/div&gt;&lt;div&gt;&lt;br&gt;&lt;/div&gt;" style="text;strokeColor=none;fillColor=none;align=left;verticalAlign=top;spacingLeft=4;spacingRight=4;overflow=hidden;rotatable=0;points=[[0,0.5],[1,0.5]];portConstraint=eastwest;whiteSpace=wrap;html=1;" parent="fyniwcf8nX9ECilfkQTT-45" vertex="1">
          <mxGeometry y="88" width="280" height="172" as="geometry" />
        </mxCell>
        <mxCell id="fyniwcf8nX9ECilfkQTT-49" value="Requests" style="swimlane;fontStyle=0;childLayout=stackLayout;horizontal=1;startSize=26;fillColor=none;horizontalStack=0;resizeParent=1;resizeParentMax=0;resizeLast=0;collapsible=1;marginBottom=0;whiteSpace=wrap;html=1;rounded=1;" parent="WIyWlLk6GJQsqaUBKTNV-1" vertex="1">
          <mxGeometry x="220" y="620" width="160" height="160" as="geometry" />
        </mxCell>
        <mxCell id="fyniwcf8nX9ECilfkQTT-50" value="+ id_user_request&lt;div&gt;+ id_number_user_request&lt;/div&gt;&lt;div&gt;+ open_request&lt;/div&gt;&lt;div&gt;+ close_request&lt;br&gt;+ balance_request&lt;br&gt;+ id_balance_request&lt;/div&gt;&lt;div&gt;+ giver_request&lt;br&gt;+ receiver_request&lt;/div&gt;" style="text;strokeColor=none;fillColor=none;align=left;verticalAlign=top;spacingLeft=4;spacingRight=4;overflow=hidden;rotatable=0;points=[[0,0.5],[1,0.5]];portConstraint=eastwest;whiteSpace=wrap;html=1;" parent="fyniwcf8nX9ECilfkQTT-49" vertex="1">
          <mxGeometry y="26" width="160" height="134" as="geometry" />
        </mxCell>
        <mxCell id="fyniwcf8nX9ECilfkQTT-51" value="BankAccount" style="swimlane;fontStyle=1;align=center;verticalAlign=top;childLayout=stackLayout;horizontal=1;startSize=26;horizontalStack=0;resizeParent=1;resizeParentMax=0;resizeLast=0;collapsible=1;marginBottom=0;whiteSpace=wrap;html=1;rounded=1;" parent="WIyWlLk6GJQsqaUBKTNV-1" vertex="1">
          <mxGeometry x="770" y="870" width="500" height="100" as="geometry" />
        </mxCell>
        <mxCell id="fyniwcf8nX9ECilfkQTT-52" value="- accounts" style="text;strokeColor=none;fillColor=none;align=left;verticalAlign=top;spacingLeft=4;spacingRight=4;overflow=hidden;rotatable=0;points=[[0,0.5],[1,0.5]];portConstraint=eastwest;whiteSpace=wrap;html=1;" parent="fyniwcf8nX9ECilfkQTT-51" vertex="1">
          <mxGeometry y="26" width="500" height="34" as="geometry" />
        </mxCell>
        <mxCell id="fyniwcf8nX9ECilfkQTT-53" value="" style="line;strokeWidth=1;fillColor=none;align=left;verticalAlign=middle;spacingTop=-1;spacingLeft=3;spacingRight=3;rotatable=0;labelPosition=right;points=[];portConstraint=eastwest;strokeColor=inherit;" parent="fyniwcf8nX9ECilfkQTT-51" vertex="1">
          <mxGeometry y="60" width="500" height="8" as="geometry" />
        </mxCell>
        <mxCell id="fyniwcf8nX9ECilfkQTT-54" value="+ process_request" style="text;strokeColor=none;fillColor=none;align=left;verticalAlign=top;spacingLeft=4;spacingRight=4;overflow=hidden;rotatable=0;points=[[0,0.5],[1,0.5]];portConstraint=eastwest;whiteSpace=wrap;html=1;" parent="fyniwcf8nX9ECilfkQTT-51" vertex="1">
          <mxGeometry y="68" width="500" height="32" as="geometry" />
        </mxCell>
        <mxCell id="fyniwcf8nX9ECilfkQTT-55" value="Debit" style="swimlane;fontStyle=1;align=center;verticalAlign=top;childLayout=stackLayout;horizontal=1;startSize=26;horizontalStack=0;resizeParent=1;resizeParentMax=0;resizeLast=0;collapsible=1;marginBottom=0;whiteSpace=wrap;html=1;rounded=1;" parent="WIyWlLk6GJQsqaUBKTNV-1" vertex="1">
          <mxGeometry x="770" y="1000" width="160" height="130" as="geometry" />
        </mxCell>
        <mxCell id="fyniwcf8nX9ECilfkQTT-56" value="- conn&lt;div&gt;- cursor&lt;/div&gt;&lt;div&gt;- anayzer&lt;/div&gt;" style="text;strokeColor=none;fillColor=none;align=left;verticalAlign=top;spacingLeft=4;spacingRight=4;overflow=hidden;rotatable=0;points=[[0,0.5],[1,0.5]];portConstraint=eastwest;whiteSpace=wrap;html=1;" parent="fyniwcf8nX9ECilfkQTT-55" vertex="1">
          <mxGeometry y="26" width="160" height="54" as="geometry" />
        </mxCell>
        <mxCell id="fyniwcf8nX9ECilfkQTT-57" value="" style="line;strokeWidth=1;fillColor=none;align=left;verticalAlign=middle;spacingTop=-1;spacingLeft=3;spacingRight=3;rotatable=0;labelPosition=right;points=[];portConstraint=eastwest;strokeColor=inherit;" parent="fyniwcf8nX9ECilfkQTT-55" vertex="1">
          <mxGeometry y="80" width="160" height="8" as="geometry" />
        </mxCell>
        <mxCell id="fyniwcf8nX9ECilfkQTT-58" value="+ create_table&lt;div&gt;+ treatment_request&lt;/div&gt;" style="text;strokeColor=none;fillColor=none;align=left;verticalAlign=top;spacingLeft=4;spacingRight=4;overflow=hidden;rotatable=0;points=[[0,0.5],[1,0.5]];portConstraint=eastwest;whiteSpace=wrap;html=1;" parent="fyniwcf8nX9ECilfkQTT-55" vertex="1">
          <mxGeometry y="88" width="160" height="42" as="geometry" />
        </mxCell>
        <mxCell id="fyniwcf8nX9ECilfkQTT-59" value="Credit" style="swimlane;fontStyle=1;align=center;verticalAlign=top;childLayout=stackLayout;horizontal=1;startSize=26;horizontalStack=0;resizeParent=1;resizeParentMax=0;resizeLast=0;collapsible=1;marginBottom=0;whiteSpace=wrap;html=1;rounded=1;" parent="WIyWlLk6GJQsqaUBKTNV-1" vertex="1">
          <mxGeometry x="940" y="1000" width="160" height="130" as="geometry" />
        </mxCell>
        <mxCell id="fyniwcf8nX9ECilfkQTT-60" value="- conn&lt;div&gt;- cursor&lt;/div&gt;&lt;div&gt;- anayzer&lt;/div&gt;" style="text;strokeColor=none;fillColor=none;align=left;verticalAlign=top;spacingLeft=4;spacingRight=4;overflow=hidden;rotatable=0;points=[[0,0.5],[1,0.5]];portConstraint=eastwest;whiteSpace=wrap;html=1;" parent="fyniwcf8nX9ECilfkQTT-59" vertex="1">
          <mxGeometry y="26" width="160" height="54" as="geometry" />
        </mxCell>
        <mxCell id="fyniwcf8nX9ECilfkQTT-61" value="" style="line;strokeWidth=1;fillColor=none;align=left;verticalAlign=middle;spacingTop=-1;spacingLeft=3;spacingRight=3;rotatable=0;labelPosition=right;points=[];portConstraint=eastwest;strokeColor=inherit;" parent="fyniwcf8nX9ECilfkQTT-59" vertex="1">
          <mxGeometry y="80" width="160" height="8" as="geometry" />
        </mxCell>
        <mxCell id="fyniwcf8nX9ECilfkQTT-62" value="+ create_table&lt;div&gt;+ treatment_request&lt;/div&gt;" style="text;strokeColor=none;fillColor=none;align=left;verticalAlign=top;spacingLeft=4;spacingRight=4;overflow=hidden;rotatable=0;points=[[0,0.5],[1,0.5]];portConstraint=eastwest;whiteSpace=wrap;html=1;" parent="fyniwcf8nX9ECilfkQTT-59" vertex="1">
          <mxGeometry y="88" width="160" height="42" as="geometry" />
        </mxCell>
        <mxCell id="fyniwcf8nX9ECilfkQTT-63" value="Deposit" style="swimlane;fontStyle=1;align=center;verticalAlign=top;childLayout=stackLayout;horizontal=1;startSize=26;horizontalStack=0;resizeParent=1;resizeParentMax=0;resizeLast=0;collapsible=1;marginBottom=0;whiteSpace=wrap;html=1;rounded=1;" parent="WIyWlLk6GJQsqaUBKTNV-1" vertex="1">
          <mxGeometry x="1110" y="1000" width="160" height="130" as="geometry" />
        </mxCell>
        <mxCell id="fyniwcf8nX9ECilfkQTT-64" value="- conn&lt;div&gt;- cursor&lt;/div&gt;&lt;div&gt;- anayzer&lt;/div&gt;" style="text;strokeColor=none;fillColor=none;align=left;verticalAlign=top;spacingLeft=4;spacingRight=4;overflow=hidden;rotatable=0;points=[[0,0.5],[1,0.5]];portConstraint=eastwest;whiteSpace=wrap;html=1;" parent="fyniwcf8nX9ECilfkQTT-63" vertex="1">
          <mxGeometry y="26" width="160" height="54" as="geometry" />
        </mxCell>
        <mxCell id="fyniwcf8nX9ECilfkQTT-65" value="" style="line;strokeWidth=1;fillColor=none;align=left;verticalAlign=middle;spacingTop=-1;spacingLeft=3;spacingRight=3;rotatable=0;labelPosition=right;points=[];portConstraint=eastwest;strokeColor=inherit;" parent="fyniwcf8nX9ECilfkQTT-63" vertex="1">
          <mxGeometry y="80" width="160" height="8" as="geometry" />
        </mxCell>
        <mxCell id="fyniwcf8nX9ECilfkQTT-66" value="+ create_table&lt;div&gt;+ treatment_request&lt;/div&gt;" style="text;strokeColor=none;fillColor=none;align=left;verticalAlign=top;spacingLeft=4;spacingRight=4;overflow=hidden;rotatable=0;points=[[0,0.5],[1,0.5]];portConstraint=eastwest;whiteSpace=wrap;html=1;" parent="fyniwcf8nX9ECilfkQTT-63" vertex="1">
          <mxGeometry y="88" width="160" height="42" as="geometry" />
        </mxCell>
        <mxCell id="fyniwcf8nX9ECilfkQTT-67" style="edgeStyle=orthogonalEdgeStyle;rounded=0;orthogonalLoop=1;jettySize=auto;html=1;exitX=0.5;exitY=0;exitDx=0;exitDy=0;entryX=0.5;entryY=1;entryDx=0;entryDy=0;endArrow=none;endFill=0;" parent="WIyWlLk6GJQsqaUBKTNV-1" source="fyniwcf8nX9ECilfkQTT-68" target="fyniwcf8nX9ECilfkQTT-55" edge="1">
          <mxGeometry relative="1" as="geometry" />
        </mxCell>
        <mxCell id="fyniwcf8nX9ECilfkQTT-68" value="MethodDebit" style="swimlane;fontStyle=1;align=center;verticalAlign=top;childLayout=stackLayout;horizontal=1;startSize=26;horizontalStack=0;resizeParent=1;resizeParentMax=0;resizeLast=0;collapsible=1;marginBottom=0;whiteSpace=wrap;html=1;rounded=1;" parent="WIyWlLk6GJQsqaUBKTNV-1" vertex="1">
          <mxGeometry x="770" y="1150" width="160" height="130" as="geometry" />
        </mxCell>
        <mxCell id="fyniwcf8nX9ECilfkQTT-69" value="+ AnalyzeRequest&lt;div&gt;+ Openaccount&lt;/div&gt;&lt;div&gt;+ Closeaccount&lt;/div&gt;&lt;div&gt;+ GetMoney&lt;/div&gt;&lt;div&gt;+ GiveMoney&lt;/div&gt;&lt;div&gt;+ GetBalance&lt;/div&gt;" style="text;strokeColor=none;fillColor=none;align=left;verticalAlign=top;spacingLeft=4;spacingRight=4;overflow=hidden;rotatable=0;points=[[0,0.5],[1,0.5]];portConstraint=eastwest;whiteSpace=wrap;html=1;" parent="fyniwcf8nX9ECilfkQTT-68" vertex="1">
          <mxGeometry y="26" width="160" height="104" as="geometry" />
        </mxCell>
        <mxCell id="fyniwcf8nX9ECilfkQTT-70" value="MethodCredit" style="swimlane;fontStyle=1;align=center;verticalAlign=top;childLayout=stackLayout;horizontal=1;startSize=26;horizontalStack=0;resizeParent=1;resizeParentMax=0;resizeLast=0;collapsible=1;marginBottom=0;whiteSpace=wrap;html=1;rounded=1;" parent="WIyWlLk6GJQsqaUBKTNV-1" vertex="1">
          <mxGeometry x="940" y="1150" width="160" height="140" as="geometry" />
        </mxCell>
        <mxCell id="fyniwcf8nX9ECilfkQTT-71" value="+ AnalyzeRequest&lt;div&gt;+ Openaccount&lt;/div&gt;&lt;div&gt;+ Closeaccount&lt;/div&gt;&lt;div&gt;+ GetMoney&lt;/div&gt;&lt;div&gt;+ GiveMoney&lt;/div&gt;&lt;div&gt;+ PayCredit&lt;/div&gt;&lt;div&gt;+ GetBalance&lt;/div&gt;" style="text;strokeColor=none;fillColor=none;align=left;verticalAlign=top;spacingLeft=4;spacingRight=4;overflow=hidden;rotatable=0;points=[[0,0.5],[1,0.5]];portConstraint=eastwest;whiteSpace=wrap;html=1;" parent="fyniwcf8nX9ECilfkQTT-70" vertex="1">
          <mxGeometry y="26" width="160" height="114" as="geometry" />
        </mxCell>
        <mxCell id="fyniwcf8nX9ECilfkQTT-72" style="edgeStyle=orthogonalEdgeStyle;rounded=0;orthogonalLoop=1;jettySize=auto;html=1;exitX=0.5;exitY=0;exitDx=0;exitDy=0;entryX=0.5;entryY=1;entryDx=0;entryDy=0;endArrow=none;endFill=0;" parent="WIyWlLk6GJQsqaUBKTNV-1" source="fyniwcf8nX9ECilfkQTT-73" target="fyniwcf8nX9ECilfkQTT-63" edge="1">
          <mxGeometry relative="1" as="geometry" />
        </mxCell>
        <mxCell id="fyniwcf8nX9ECilfkQTT-73" value="MethodDeposit" style="swimlane;fontStyle=1;align=center;verticalAlign=top;childLayout=stackLayout;horizontal=1;startSize=26;horizontalStack=0;resizeParent=1;resizeParentMax=0;resizeLast=0;collapsible=1;marginBottom=0;whiteSpace=wrap;html=1;rounded=1;" parent="WIyWlLk6GJQsqaUBKTNV-1" vertex="1">
          <mxGeometry x="1110" y="1150" width="160" height="170" as="geometry" />
        </mxCell>
        <mxCell id="fyniwcf8nX9ECilfkQTT-74" value="+ AnalyzeRequest&lt;div&gt;+ Openaccount&lt;/div&gt;&lt;div&gt;+ Closeaccount&lt;/div&gt;&lt;div&gt;+ GetMoney&lt;/div&gt;&lt;div&gt;+ GiveMoney&lt;/div&gt;&lt;div&gt;+ SetOn&lt;/div&gt;&lt;div&gt;+ SetOff&lt;/div&gt;&lt;div&gt;+ PayDeposit&lt;/div&gt;&lt;div&gt;+ GetBalance&lt;/div&gt;" style="text;strokeColor=none;fillColor=none;align=left;verticalAlign=top;spacingLeft=4;spacingRight=4;overflow=hidden;rotatable=0;points=[[0,0.5],[1,0.5]];portConstraint=eastwest;whiteSpace=wrap;html=1;" parent="fyniwcf8nX9ECilfkQTT-73" vertex="1">
          <mxGeometry y="26" width="160" height="144" as="geometry" />
        </mxCell>
        <mxCell id="fyniwcf8nX9ECilfkQTT-75" style="edgeStyle=orthogonalEdgeStyle;rounded=0;orthogonalLoop=1;jettySize=auto;html=1;exitX=0.5;exitY=0;exitDx=0;exitDy=0;entryX=0.499;entryY=0.99;entryDx=0;entryDy=0;entryPerimeter=0;endArrow=none;endFill=0;" parent="WIyWlLk6GJQsqaUBKTNV-1" source="fyniwcf8nX9ECilfkQTT-70" target="fyniwcf8nX9ECilfkQTT-62" edge="1">
          <mxGeometry relative="1" as="geometry" />
        </mxCell>
        <mxCell id="fyniwcf8nX9ECilfkQTT-79" style="edgeStyle=orthogonalEdgeStyle;rounded=0;orthogonalLoop=1;jettySize=auto;html=1;exitX=0.5;exitY=0;exitDx=0;exitDy=0;entryX=0.167;entryY=1.003;entryDx=0;entryDy=0;entryPerimeter=0;endArrow=none;endFill=0;" parent="WIyWlLk6GJQsqaUBKTNV-1" source="fyniwcf8nX9ECilfkQTT-45" target="fyniwcf8nX9ECilfkQTT-44" edge="1">
          <mxGeometry relative="1" as="geometry" />
        </mxCell>
        <mxCell id="fyniwcf8nX9ECilfkQTT-80" style="edgeStyle=orthogonalEdgeStyle;rounded=0;orthogonalLoop=1;jettySize=auto;html=1;exitX=0.5;exitY=0;exitDx=0;exitDy=0;entryX=0.702;entryY=1.001;entryDx=0;entryDy=0;entryPerimeter=0;endArrow=none;endFill=0;" parent="WIyWlLk6GJQsqaUBKTNV-1" source="fyniwcf8nX9ECilfkQTT-51" target="fyniwcf8nX9ECilfkQTT-44" edge="1">
          <mxGeometry relative="1" as="geometry" />
        </mxCell>
        <mxCell id="fyniwcf8nX9ECilfkQTT-81" style="edgeStyle=orthogonalEdgeStyle;rounded=0;orthogonalLoop=1;jettySize=auto;html=1;exitX=1;exitY=0.5;exitDx=0;exitDy=0;entryX=-0.001;entryY=0.266;entryDx=0;entryDy=0;entryPerimeter=0;endArrow=none;endFill=0;" parent="WIyWlLk6GJQsqaUBKTNV-1" source="fyniwcf8nX9ECilfkQTT-50" target="fyniwcf8nX9ECilfkQTT-44" edge="1">
          <mxGeometry relative="1" as="geometry" />
        </mxCell>
        <mxCell id="Edm54Qj2jC3l95G7cOBo-1" style="edgeStyle=orthogonalEdgeStyle;rounded=0;orthogonalLoop=1;jettySize=auto;html=1;exitX=0.5;exitY=0;exitDx=0;exitDy=0;entryX=0.5;entryY=1;entryDx=0;entryDy=0;entryPerimeter=0;endArrow=none;endFill=0;" parent="WIyWlLk6GJQsqaUBKTNV-1" source="fyniwcf8nX9ECilfkQTT-59" target="fyniwcf8nX9ECilfkQTT-54" edge="1">
          <mxGeometry relative="1" as="geometry" />
        </mxCell>
        <mxCell id="Edm54Qj2jC3l95G7cOBo-2" style="edgeStyle=orthogonalEdgeStyle;rounded=0;orthogonalLoop=1;jettySize=auto;html=1;exitX=0.5;exitY=0;exitDx=0;exitDy=0;entryX=0.16;entryY=1;entryDx=0;entryDy=0;entryPerimeter=0;endArrow=none;endFill=0;" parent="WIyWlLk6GJQsqaUBKTNV-1" source="fyniwcf8nX9ECilfkQTT-55" target="fyniwcf8nX9ECilfkQTT-54" edge="1">
          <mxGeometry relative="1" as="geometry" />
        </mxCell>
        <mxCell id="Edm54Qj2jC3l95G7cOBo-3" style="edgeStyle=orthogonalEdgeStyle;rounded=0;orthogonalLoop=1;jettySize=auto;html=1;exitX=0.5;exitY=0;exitDx=0;exitDy=0;entryX=0.839;entryY=0.999;entryDx=0;entryDy=0;entryPerimeter=0;endArrow=none;endFill=0;" parent="WIyWlLk6GJQsqaUBKTNV-1" source="fyniwcf8nX9ECilfkQTT-63" target="fyniwcf8nX9ECilfkQTT-54" edge="1">
          <mxGeometry relative="1" as="geometry" />
        </mxCell>
        <mxCell id="ttX28U5JRSKk1ZVLX-mq-0" value="Logs" style="swimlane;fontStyle=0;childLayout=stackLayout;horizontal=1;startSize=26;fillColor=none;horizontalStack=0;resizeParent=1;resizeParentMax=0;resizeLast=0;collapsible=1;marginBottom=0;whiteSpace=wrap;html=1;rounded=1;" vertex="1" parent="WIyWlLk6GJQsqaUBKTNV-1">
          <mxGeometry x="1330" y="620" width="160" height="160" as="geometry" />
        </mxCell>
        <mxCell id="ttX28U5JRSKk1ZVLX-mq-1" value="+&amp;nbsp;&lt;span style=&quot;font-family: &amp;quot;JetBrains Mono&amp;quot;, monospace;&quot;&gt;create_tables&lt;/span&gt;&lt;div&gt;+ add_log&lt;/div&gt;&lt;div&gt;+ get_log_by_id&lt;/div&gt;&lt;div&gt;+ get_last_cleanup_time&lt;br&gt;+ set_last_cleanup_time&lt;br&gt;+ cleanup_database&lt;/div&gt;&lt;div&gt;+ close&lt;br&gt;&lt;/div&gt;" style="text;strokeColor=none;fillColor=none;align=left;verticalAlign=top;spacingLeft=4;spacingRight=4;overflow=hidden;rotatable=0;points=[[0,0.5],[1,0.5]];portConstraint=eastwest;whiteSpace=wrap;html=1;" vertex="1" parent="ttX28U5JRSKk1ZVLX-mq-0">
          <mxGeometry y="26" width="160" height="134" as="geometry" />
        </mxCell>
        <mxCell id="ttX28U5JRSKk1ZVLX-mq-2" value="" style="endArrow=none;html=1;rounded=0;" edge="1" parent="WIyWlLk6GJQsqaUBKTNV-1">
          <mxGeometry width="50" height="50" relative="1" as="geometry">
            <mxPoint x="1270" y="710" as="sourcePoint" />
            <mxPoint x="1330" y="710" as="targetPoint" />
          </mxGeometry>
        </mxCell>
      </root>
    </mxGraphModel>
  </diagram>
</mxfile>
